
<svg xmlns="http://www.w3.org/2000/svg" viewBox="0 0 32 32">
  <path id="HELP-ACTIVE" d="M-238-173h-24a4.005,4.005,0,0,1-4-4v-24a4.005,4.005,0,0,1,4-4h24a4,4,0,0,1,4,4v24A4,4,0,0,1-238-173Zm-12-26a10.011,10.011,0,0,0-10,10,10.011,10.011,0,0,0,10,10,10.011,10.011,0,0,0,10-10A10.011,10.011,0,0,0-250-199Zm1.467,16.45h-2.63v-2.48h2.63v2.479Zm.011-3.792h-2.647v-.892a3.123,3.123,0,0,1,.333-1.363l.006-.01,0-.006a3.88,3.88,0,0,1,.808-1.128l1.047-.973a1.045,1.045,0,0,0,.346-.753.928.928,0,0,0-.333-.7l-.01-.008-.009-.009a1.24,1.24,0,0,0-.847-.333h-.051a1.226,1.226,0,0,0-.844.333l-.009.007-.009.008a.947.947,0,0,0-.337.725l0,.48h-2.61l-.017-.464v-.031a3.24,3.24,0,0,1,.539-1.789,3.812,3.812,0,0,1,1.407-1.279,4,4,0,0,1,1.878-.472h.067a4,4,0,0,1,1.878.472,3.8,3.8,0,0,1,1.407,1.279,3.228,3.228,0,0,1,.536,1.786v.028l0,.014a2.6,2.6,0,0,1-.259,1.125,3.26,3.26,0,0,1-.679.933l-.758.728-.005,0a3.639,3.639,0,0,0-.614.734,2.235,2.235,0,0,0-.23.978l0,.078.017.5Z" transform="translate(266 205)" fill="#fff"/>
</svg>
