<?xml version="1.0" encoding="utf-8"?>
<!-- Generator: Adobe Illustrator 24.1.1, SVG Export Plug-In . SVG Version: 6.00 Build 0)  -->
<svg version="1.1" id="Layer_1" xmlns="http://www.w3.org/2000/svg" xmlns:xlink="http://www.w3.org/1999/xlink" x="0px" y="0px"
	 viewBox="0 0 32 32" style="enable-background:new 0 0 32 32;" xml:space="preserve">
<style type="text/css">
	.st0{fill:#FFFFFF;}
</style>
<g>
	<path class="st0" d="M10.5,18.9H6c-0.4,0-0.7,0.3-0.7,0.7s0.3,0.7,0.7,0.7h4.5c0.4,0,0.7-0.3,0.7-0.7S10.9,18.9,10.5,18.9z"/>
	<polygon class="st0" points="16,22.2 16,22.2 16,22.2 	"/>
	<path class="st0" d="M14,17.6l-6.3-3.6c0,0,0,0,0,0c-0.3-0.2-0.8-0.1-1,0.3S6.7,15,7,15.2l0.1,0c0,0,0,0,0.1,0.1l0.5,0.2l5.7,3.3
		c-0.1,0.2-0.1,0.5-0.1,0.7c0,1.5,1.3,2.7,2.7,2.7c0.9,0,1.7-0.4,2.3-1.2l0,0c0.8-1.1,0.6-2.6-0.3-3.5C16.8,16.4,15.1,16.5,14,17.6z
		"/>
	<path class="st0" d="M12.7,15.1c0.2,0.3,0.6,0.5,1,0.3c0.3-0.2,0.5-0.6,0.3-1l-2.2-3.9c-0.2-0.3-0.6-0.5-1-0.3
		c-0.3,0.2-0.5,0.6-0.3,1L12.7,15.1z"/>
	<path class="st0" d="M16.2,14.2c0.4,0,0.7-0.3,0.7-0.7V9c0-0.4-0.3-0.7-0.7-0.7S15.5,8.6,15.5,9v4.5C15.5,13.9,15.8,14.2,16.2,14.2
		z"/>
	<path class="st0" d="M21.1,19.6c0,0.4,0.3,0.7,0.7,0.7h4.5c0.4,0,0.7-0.3,0.7-0.7s-0.3-0.7-0.7-0.7h-4.5
		C21.4,18.9,21.1,19.2,21.1,19.6z"/>
	<path class="st0" d="M28,0H4C1.8,0,0,1.8,0,4v24c0,2.2,1.8,4,4,4h24c2.2,0,4-1.8,4-4V4C32,1.8,30.2,0,28,0z M27.6,23.2H4.4
		c-0.9-2.7-0.9-5.6,0-8.2c2.3-6.4,9.3-9.8,15.7-7.5C26.5,9.7,29.9,16.8,27.6,23.2z"/>
	<path class="st0" d="M20.9,16.9c0.2,0.3,0.6,0.5,1,0.3l3.9-2.2c0.3-0.2,0.5-0.6,0.3-1c-0.2-0.3-0.6-0.5-1-0.3l-3.9,2.2
		C20.8,16.1,20.7,16.5,20.9,16.9z"/>
	<path class="st0" d="M22.1,10.7c0.2-0.3,0.1-0.8-0.3-1c-0.3-0.2-0.8-0.1-1,0.3l-2.2,3.9c-0.1,0.1-0.1,0.2-0.1,0.4
		c0,0.4,0.3,0.7,0.7,0.7c0.3,0,0.5-0.1,0.6-0.4L22.1,10.7C22.1,10.7,22.1,10.7,22.1,10.7z"/>
</g>
</svg>
