
<svg id="Layer_1" data-name="Layer 1" xmlns="http://www.w3.org/2000/svg" width="32" height="32" viewBox="0 0 32 32"><defs><style>.cls-1{fill:#3fa9f5;}</style></defs><title>Blocks_Icon</title><path class="cls-1" d="M11.4,1.9,10,3.2a.9.9,0,0,1-.7.3H6a1.1,1.1,0,0,1-.8-.3L3.9,1.9a.9.9,0,0,0-.7-.3H1a.9.9,0,0,0-1,1v9.9a1,1,0,0,0,1,1H3.1a.9.9,0,0,1,.7.3l1.4,1.4.8.2H9.3l.7-.2,1.5-1.4a.8.8,0,0,1,.7-.3H31a1,1,0,0,0,1-1V2.6a.9.9,0,0,0-1-1H12.1A.9.9,0,0,0,11.4,1.9Z"/><path class="cls-1" d="M11.4,16.9,10,18.2a.9.9,0,0,1-.7.3H6a1.1,1.1,0,0,1-.8-.3L3.9,16.9a.9.9,0,0,0-.7-.3H1a.9.9,0,0,0-1,1v9.9a1,1,0,0,0,1,1H3.1a.9.9,0,0,1,.7.3l1.4,1.4.8.2H9.3l.7-.2,1.5-1.4a.8.8,0,0,1,.7-.3H31a1,1,0,0,0,1-1V17.6a.9.9,0,0,0-1-1H12.1A.9.9,0,0,0,11.4,16.9Z"/></svg>