
<svg xmlns="http://www.w3.org/2000/svg" id="a43a4e98-dd30-4fa0-a9be-83ff63006dae" data-name="Layer 1" width="305" height="305" viewBox="0 0 305 305"><defs><style>.fd04b431-a2f9-4362-b9f1-3d645135869f{fill:#2699fb;}.af655955-4162-4c6f-8f7b-f51d988908de{fill:#fff;}</style></defs><title>VEXcode Text Icon-Blue</title><path xmlns="http://www.w3.org/2000/svg" fill="#fff" d="M265,0H40A40,40,0,0,0,0,40V265a40,40,0,0,0,40,40H265a40,40,0,0,0,40-40V40A40,40,0,0,0,265,0ZM127.87,124.8a1.94,1.94,0,0,1-.93,1.7L84.49,150.29a2,2,0,0,0,0,3.39l42.45,23.79a1.94,1.94,0,0,1,.93,1.7v38.42a1.7,1.7,0,0,1-2.48,1.67l-79-47.17a1.92,1.92,0,0,1-.9-1.67V134.58a1.92,1.92,0,0,1,.9-1.67l79-47.17a1.7,1.7,0,0,1,2.48,1.67ZM259.5,170.42a1.92,1.92,0,0,1-.9,1.67l-79,47.17a1.7,1.7,0,0,1-2.48-1.67V180.2a1.94,1.94,0,0,1,.93-1.7l42.45-23.79a2,2,0,0,0,0-3.39l-42.45-23.79a1.94,1.94,0,0,1-.93-1.7V87.41a1.7,1.7,0,0,1,2.48-1.67l79,47.17a1.92,1.92,0,0,1,.9,1.67Z"/>

<path fill="transparent" d="M259.5,134.58v35.84a1.92,1.92,0,0,1-.9,1.67l-79,47.17a1.7,1.7,0,0,1-2.48-1.67V180.2a1.94,1.94,0,0,1,.93-1.7l42.45-23.79a2,2,0,0,0,0-3.39l-42.45-23.79a1.94,1.94,0,0,1-.93-1.7V87.41a1.7,1.7,0,0,1,2.48-1.67l79,47.17A1.92,1.92,0,0,1,259.5,134.58Z"/>

<path fill="transparent" d="M84.49,153.68l42.45,23.79a1.94,1.94,0,0,1,.93,1.7v38.42a1.7,1.7,0,0,1-2.48,1.67l-79-47.17a1.92,1.92,0,0,1-.9-1.67V134.58a1.92,1.92,0,0,1,.9-1.67l79-47.17a1.7,1.7,0,0,1,2.48,1.67V124.8a1.94,1.94,0,0,1-.93,1.7L84.49,150.29A2,2,0,0,0,84.49,153.68Z"/></svg>