
<svg xmlns="http://www.w3.org/2000/svg" viewBox="0 0 60 60"><defs><style>.cls-1{fill:none;}.cls-2{fill:#4c97ff;}</style></defs><title>Asset 5</title><g id="Layer_2" data-name="Layer 2"><g id="Layer_2-2" data-name="Layer 2"><rect id="Rectangle_2101" data-name="Rectangle 2101" class="cls-1" width="60" height="60"/><g id="BTN-BLOCKS-SHOW"><path id="Path_2736-2" data-name="Path 2736-2" class="cls-2" d="M36.3,26.86,40,23.44,36.3,20a1.14,1.14,0,0,1-.08-1.6l.08-.07a1.3,1.3,0,0,1,1.78,0h0l4.55,4.25a1.14,1.14,0,0,1,.07,1.6l-.07.08-4.55,4.26a1.32,1.32,0,0,1-1.78,0,1.14,1.14,0,0,1-.08-1.6Z"/><g id="Group_1310-2" data-name="Group 1310-2"><path id="Path_2737-2" data-name="Path 2737-2" class="cls-2" d="M29.9,20.55l-1.26,1.34a1,1,0,0,1-.74.31H24.27a1,1,0,0,1-.74-.31l-1.26-1.34a1,1,0,0,0-.75-.32H18a1,1,0,0,0-1,1v5.93a1,1,0,0,0,1,1h3.52a1,1,0,0,1,.74.32l1.26,1.34a1,1,0,0,0,.74.32H27.9a1,1,0,0,0,.74-.32l1.26-1.34a1,1,0,0,1,.74-.32h2.51a1,1,0,0,0,1-1V21.22a1,1,0,0,0-1-1H30.64A1,1,0,0,0,29.9,20.55Z"/><path id="Path_2738-2" data-name="Path 2738-2" class="cls-2" d="M30.91,31.43l-1.25,1.34a1.07,1.07,0,0,1-.75.32H23.26a1,1,0,0,1-.74-.32l-1.26-1.34a1,1,0,0,0-.74-.32H18a1,1,0,0,0-1,1V38a1,1,0,0,0,1,1h3.52a1,1,0,0,1,.74.32l1.26,1.34a1,1,0,0,0,.74.32H27.9a1,1,0,0,0,.74-.32l1.26-1.34a1,1,0,0,1,.74-.32h9.58a1,1,0,0,0,1-1h0V32.1a1,1,0,0,0-1-1H31.65A1,1,0,0,0,30.91,31.43Z"/></g></g></g></g></svg>